<svg width="256" height="256" viewBox="0 0 256 256" fill="none" xmlns="http://www.w3.org/2000/svg">
<rect width="256" height="256" rx="64" fill="black"/>
<path d="M164.202 32.0013L159.859 48.1725L154.816 66.9611C149.653 65.5047 144.201 64.7272 138.572 64.7272C129.025 64.7272 120.001 66.9611 111.993 70.9417H111.988C92.2766 80.7325 78.7281 101.066 78.7281 124.571C78.7281 157.623 105.519 184.415 138.572 184.415C141.08 184.415 143.553 184.259 145.984 183.958C137.981 187.934 128.957 190.168 119.415 190.168C92.7068 190.168 70.0776 172.665 62.3859 148.501C62.3859 148.501 62.3859 148.498 62.3859 148.491C62.1267 147.532 61.8831 146.568 61.6603 145.593L45.1833 151.155C42.5607 142.432 41.1509 133.18 41.1509 123.596C41.1509 70.8018 83.9475 28 136.742 28C146.289 28 155.505 29.3994 164.202 32.0013Z" fill="#0085E6"/>
<path d="M159.859 48.1725L164.202 32.0013C155.505 29.3994 146.289 28 136.742 28C107.655 28 81.6036 40.9918 64.0713 61.4888L92.7453 86.0827C98.0241 79.8044 104.57 74.6265 111.988 70.9417H111.993C120.001 66.9611 129.025 64.7272 138.572 64.7272C144.201 64.7272 149.653 65.5047 154.815 66.9611L159.859 48.1725Z" fill="#00D4F8"/>
<path d="M200.592 212.419L188.759 200.57L175.008 186.809C178.849 183.067 182.249 178.734 185.064 173.857C189.837 165.59 192.413 156.659 192.973 147.734C194.352 125.763 183.514 103.865 163.16 92.1093C134.534 75.5805 97.9362 85.3869 81.4126 114.013C80.1583 116.185 79.0543 118.403 78.1006 120.658C78.6604 111.738 81.2363 102.807 86.0048 94.5454C99.3615 71.4133 125.831 60.5704 150.601 65.9919C150.601 65.9919 150.605 65.9936 150.612 65.997C151.571 66.251 152.529 66.5205 153.483 66.816L156.904 49.7637C165.772 51.8524 174.485 55.2577 182.788 60.0521C228.508 86.4494 244.176 144.914 217.779 190.634C213.005 198.901 207.185 206.183 200.582 212.414L200.592 212.419Z" fill="#FF5B8C"/>
<path d="M200.584 212.41L200.592 212.418L200.582 212.413C200.583 212.412 200.584 212.411 200.584 212.41L188.759 200.569L175.009 186.808C178.849 183.066 182.249 178.733 185.064 173.856C189.837 165.589 192.413 156.658 192.973 147.733C193.145 144.991 192.765 139.198 192.561 136.477L229.652 129.739C232.484 149.911 228.798 171.548 217.779 190.634C213.006 198.899 207.187 206.181 200.584 212.41Z" fill="#FFBE40"/>
<path d="M26.3323 154.405L42.5086 150.082L61.3024 145.055C62.6241 150.253 64.6766 155.364 67.491 160.241C72.2646 168.508 78.7124 175.205 86.1604 180.149C104.493 192.33 128.879 193.895 149.233 182.145C177.859 165.616 187.666 129.024 171.137 100.398C169.883 98.2259 168.514 96.163 167.037 94.209C174.48 99.1536 180.928 105.85 185.696 114.112C199.053 137.244 195.207 165.59 178.129 184.332C178.129 184.332 178.125 184.334 178.118 184.337C177.419 185.042 176.703 185.737 175.973 186.416L189.029 197.907C182.783 204.541 175.48 210.387 167.177 215.177C121.457 241.574 62.9921 225.911 36.5947 180.191C31.8211 171.924 28.4262 163.242 26.3323 154.41L26.3323 154.405Z" fill="#00B787"/>
<path d="M42.5086 150.082L26.3323 154.405V154.41C28.4262 163.242 31.8211 171.924 36.5947 180.191C46.6448 197.597 61.343 210.647 78.2164 218.678L95.6237 185.273C92.3361 183.859 89.1669 182.147 86.1604 180.149C78.7124 175.205 72.2646 168.508 67.491 160.241C64.6766 155.364 62.6241 150.253 61.3024 145.055L42.5086 150.082Z" fill="#86EF5F"/>
<ellipse cx="157.689" cy="49.1129" rx="18.6674" ry="18.193" fill="#0085E6"/>
<ellipse cx="78.4969" cy="73.2576" rx="18.7853" ry="18.3079" fill="#00D4F8"/>
<ellipse cx="44.1483" cy="151.058" rx="18.1483" ry="17.6871" fill="#00B787"/>
<ellipse cx="86.7865" cy="201.913" rx="19.227" ry="18.7384" fill="#86EF5F"/>
<ellipse cx="188.78" cy="198.929" rx="18.2462" ry="17.6113" fill="#FF5B8C"/>
<ellipse cx="211.478" cy="133.157" rx="18.4883" ry="17.8449" fill="#FFBE40"/>
<path d="M96.2439 132.583C115.586 132.583 131.266 116.903 131.266 97.561C131.266 116.903 146.946 132.583 166.289 132.583C146.946 132.583 131.266 148.264 131.266 167.606C131.266 148.264 115.586 132.583 96.2439 132.583Z" fill="white"/>
</svg>
